<svg width="312" height="36" viewBox="0 0 312 36" fill="none" xmlns="http://www.w3.org/2000/svg">
<path d="M164.135 14.9844L164.118 7.12054L160.256 13.5989H158.889L155.052 7.2895V14.9844H152.208V1.87828H154.72L159.619 10.0231L164.449 1.87828H166.945L166.979 14.9844H164.135Z" fill="#323439"/>
<path d="M180.234 12.5503V14.9844H170.086V1.87874H179.986V4.31285H173.103V7.15837H179.18V9.51706H173.103V12.5503H180.234Z" fill="#323439"/>
<path d="M185.362 4.34991H181.168V1.8787H192.59V4.34991H188.397V14.9844H185.362V4.34991Z" fill="#323439"/>
<path d="M201.802 4.93953C201.322 4.54677 200.633 4.3504 199.725 4.3504H197.246V8.91854H199.725C200.633 8.91854 201.322 8.71867 201.802 8.31981C202.274 7.92008 202.509 7.35801 202.509 6.63447C202.509 5.89785 202.274 5.33315 201.802 4.93953ZM202.57 14.9844L200.039 11.3335H199.891H197.246V14.9844H194.218V1.87867H199.891C201.052 1.87867 202.055 2.07244 202.911 2.45909C203.766 2.8466 204.429 3.39557 204.892 4.10689C205.354 4.81821 205.581 5.66045 205.581 6.63447C205.581 7.60763 205.346 8.44724 204.883 9.15245C204.412 9.85766 203.749 10.3979 202.884 10.7715L205.826 14.9844H202.57Z" fill="#323439"/>
<path d="M207.983 1.87807H211.014V14.9834H207.983V1.87807Z" fill="#323439"/>
<path d="M216.766 14.339C215.686 13.7584 214.845 12.9539 214.225 11.9237C213.606 10.8935 213.296 9.7306 213.296 8.43225C213.296 7.1339 213.606 5.97008 214.225 4.9399C214.845 3.9106 215.686 3.10521 216.766 2.52551C217.845 1.94493 219.067 1.65464 220.412 1.65464C221.545 1.65464 222.571 1.85466 223.492 2.25381C224.412 2.65296 225.182 3.22735 225.802 3.97609L223.855 5.7736C222.97 4.7505 221.872 4.23806 220.562 4.23806C219.748 4.23806 219.022 4.41595 218.385 4.77174C217.748 5.12752 217.252 5.62315 216.898 6.26038C216.544 6.89672 216.367 7.62067 216.367 8.43225C216.367 9.24383 216.544 9.96691 216.898 10.6032C217.252 11.2405 217.748 11.7361 218.385 12.0919C219.022 12.4477 219.748 12.6256 220.562 12.6256C221.872 12.6256 222.97 12.1078 223.855 11.0714L225.802 12.8689C225.182 13.631 224.403 14.2107 223.483 14.6107C222.554 15.0099 221.527 15.209 220.394 15.209C219.058 15.209 217.845 14.9196 216.766 14.339Z" fill="#323439"/>
<path d="M235.258 9.87285L233.183 4.85521L231.1 9.87285H235.258ZM236.214 12.176H230.134L228.972 14.9844H225.861L231.699 1.87878H234.694L240.559 14.9844H237.377L236.214 12.176Z" fill="#323439"/>
<path d="M153.512 33.9147C152.539 33.6338 151.761 33.2692 151.177 32.82L152.209 30.536C152.767 30.9479 153.436 31.2779 154.205 31.5283C154.984 31.7778 155.754 31.9022 156.532 31.9022C157.395 31.9022 158.029 31.7744 158.444 31.519C158.85 31.2626 159.061 30.9226 159.061 30.4979C159.061 30.1866 158.934 29.9269 158.689 29.7213C158.452 29.5158 158.139 29.35 157.758 29.2248C157.378 29.1004 156.862 28.9625 156.21 28.8128C155.212 28.5759 154.4 28.3391 153.766 28.1014C153.123 27.8645 152.581 27.4838 152.124 26.9593C151.668 26.4349 151.439 25.737 151.439 24.8631C151.439 24.1018 151.642 23.4115 152.057 22.7939C152.463 22.1764 153.089 21.6866 153.918 21.3245C154.747 20.9625 155.762 20.7814 156.963 20.7814C157.801 20.7814 158.613 20.8813 159.416 21.0809C160.212 21.2806 160.914 21.5673 161.514 21.9421L160.575 24.2447C159.366 23.5587 158.156 23.2152 156.938 23.2152C156.092 23.2152 155.466 23.3531 155.06 23.6272C154.654 23.9021 154.451 24.2642 154.451 24.7134C154.451 25.1626 154.688 25.4967 155.153 25.715C155.627 25.9332 156.337 26.1489 157.302 26.3604C158.3 26.5981 159.112 26.835 159.755 27.0719C160.389 27.3096 160.931 27.6835 161.388 28.1953C161.844 28.7071 162.073 29.3999 162.073 30.2737C162.073 31.0224 161.861 31.7059 161.447 32.3234C161.032 32.941 160.398 33.4316 159.56 33.7937C158.731 34.1549 157.708 34.3359 156.515 34.3359C155.474 34.3359 154.476 34.1964 153.512 33.9147Z" fill="#323439"/>
<path d="M174.297 31.6773V34.1113H164.149V21.0059H174.058V23.4399H167.162V26.2853H173.247V28.645H167.162V31.6773H174.297Z" fill="#323439"/>
<path d="M184.295 24.0667C183.821 23.6736 183.131 23.4771 182.217 23.4771H179.743V28.045H182.217C183.131 28.045 183.821 27.845 184.295 27.445C184.769 27.0459 185.01 26.4847 185.01 25.7606C185.01 25.0244 184.769 24.4598 184.295 24.0667ZM185.062 34.1104L182.536 30.4596H182.381H179.743V34.1104H176.709V21.0047H182.381C183.545 21.0047 184.554 21.1987 185.407 21.5857C186.26 21.9728 186.924 22.5219 187.381 23.2331C187.847 23.9443 188.079 24.7874 188.079 25.7606C188.079 26.7339 187.847 27.5735 187.372 28.2786C186.907 28.9838 186.243 29.5243 185.381 29.8984L188.321 34.1104H185.062Z" fill="#323439"/>
<path d="M203.074 21.0049L197.403 34.1113H194.406L188.753 21.0049H192.028L196.018 30.3665L200.06 21.0049H203.074Z" fill="#323439"/>
<path d="M204.161 21.0053H207.192V34.1113H204.161V21.0053Z" fill="#323439"/>
<path d="M212.954 33.4656C211.868 32.8848 211.021 32.0798 210.403 31.0505C209.785 30.0204 209.476 28.8571 209.476 27.5586C209.476 26.261 209.785 25.0968 210.403 24.0667C211.021 23.0374 211.868 22.2324 212.954 21.6516C214.031 21.0717 215.24 20.7813 216.591 20.7813C217.73 20.7813 218.753 20.9808 219.671 21.3806C220.589 21.7796 221.357 22.3542 221.984 23.1028L220.033 24.8999C219.151 23.8769 218.056 23.3649 216.741 23.3649C215.929 23.3649 215.205 23.5423 214.569 23.8989C213.934 24.2538 213.44 24.7499 213.087 25.3872C212.725 26.0236 212.548 26.7474 212.548 27.5586C212.548 28.3698 212.725 29.0936 213.087 29.73C213.44 30.3673 213.934 30.8634 214.569 31.2191C215.205 31.5749 215.929 31.7523 216.741 31.7523C218.056 31.7523 219.151 31.235 220.033 30.1987L221.984 31.9959C221.357 32.7577 220.581 33.3376 219.663 33.7366C218.736 34.1365 217.712 34.3359 216.573 34.3359C215.24 34.3359 214.031 34.0464 212.954 33.4656Z" fill="#323439"/>
<path d="M234.17 31.6767V34.1113H224.022V21.0053H233.93V23.4391H227.04V26.2849H233.12V28.6439H227.04V31.6767H234.17Z" fill="#323439"/>
<path d="M250.743 27.353H253.513V32.6696C252.8 33.2064 251.98 33.6187 251.041 33.9056C250.103 34.1925 249.165 34.3359 248.217 34.3359C246.855 34.3359 245.628 34.0454 244.545 33.4653C243.463 32.8852 242.606 32.0796 241.992 31.0502C241.37 30.0208 241.063 28.8569 241.063 27.5587C241.063 26.2604 241.37 25.0966 241.992 24.0672C242.606 23.0369 243.463 22.2322 244.563 21.6521C245.664 21.0711 246.9 20.7806 248.272 20.7806C249.417 20.7806 250.464 20.9745 251.393 21.3616C252.331 21.7486 253.125 22.3098 253.757 23.046L251.808 24.844C250.87 23.8579 249.742 23.3644 248.416 23.3644C247.586 23.3644 246.846 23.5395 246.187 23.8895C245.547 24.2387 245.033 24.7312 244.672 25.3682C244.311 26.0042 244.13 26.735 244.13 27.5587C244.13 28.3698 244.311 29.0933 244.672 29.7303C245.033 30.3663 245.538 30.8625 246.178 31.2189C246.828 31.5743 247.559 31.7521 248.38 31.7521C249.255 31.7521 250.04 31.5653 250.743 31.19V27.353Z" fill="#323439"/>
<path d="M263.9 24.067C263.426 23.6735 262.734 23.4768 261.823 23.4768H259.345V28.0458H261.823C262.734 28.0458 263.426 27.8454 263.9 27.4464C264.373 27.0465 264.61 26.4854 264.61 25.7613C264.61 25.0253 264.373 24.4606 263.9 24.067ZM264.665 34.1113L262.142 30.4605H261.987H259.345V34.1113H256.321V21.0056H261.987C263.153 21.0056 264.155 21.1996 265.011 21.5858C265.867 21.9729 266.523 22.5222 266.988 23.2336C267.452 23.945 267.68 24.7876 267.68 25.7613C267.68 26.735 267.452 27.5739 266.979 28.279C266.514 28.9849 265.849 29.5241 264.984 29.8985L267.926 34.1113H264.665Z" fill="#323439"/>
<path d="M278.526 31.2182C279.143 30.8619 279.64 30.3658 279.999 29.7297C280.349 29.0927 280.523 28.3692 280.523 27.5574C280.523 26.7464 280.349 26.0229 279.999 25.3859C279.64 24.7498 279.143 24.2537 278.526 23.8975C277.9 23.5422 277.2 23.3645 276.427 23.3645C275.654 23.3645 274.954 23.5422 274.328 23.8975C273.703 24.2537 273.215 24.7498 272.856 25.3859C272.506 26.0229 272.331 26.7464 272.331 27.5574C272.331 28.3692 272.506 29.0927 272.856 29.7297C273.215 30.3658 273.703 30.8619 274.328 31.2182C274.954 31.5735 275.654 31.752 276.427 31.752C277.2 31.752 277.9 31.5735 278.526 31.2182ZM272.745 33.4559C271.659 32.8686 270.803 32.0604 270.186 31.0304C269.57 30.0013 269.257 28.8433 269.257 27.5574C269.257 26.2723 269.57 25.1144 270.186 24.0852C270.803 23.0552 271.659 22.247 272.745 21.6607C273.841 21.0743 275.065 20.7807 276.427 20.7807C277.79 20.7807 279.014 21.0743 280.1 21.6607C281.177 22.247 282.042 23.0552 282.659 24.0852C283.285 25.1144 283.598 26.2723 283.598 27.5574C283.598 28.8433 283.285 30.0013 282.659 31.0304C282.042 32.0604 281.177 32.8686 280.1 33.4559C279.014 34.0422 277.79 34.335 276.427 34.335C275.065 34.335 273.841 34.0422 272.745 33.4559Z" fill="#323439"/>
<path d="M287.337 32.7815C286.287 31.7456 285.767 30.2674 285.767 28.345V21.0051H288.805V28.2326C288.805 30.5795 289.78 31.7521 291.722 31.7521C292.67 31.7521 293.395 31.4687 293.896 30.9001C294.398 30.3324 294.64 29.4432 294.64 28.2326V21.0051H297.641V28.345C297.641 30.2674 297.12 31.7456 296.08 32.7815C295.03 33.8175 293.58 34.3359 291.704 34.3359C289.836 34.3359 288.377 33.8175 287.337 32.7815Z" fill="#323439"/>
<path d="M308.22 27.4361C308.689 27.0431 308.933 26.4841 308.933 25.761C308.933 25.0238 308.689 24.4592 308.22 24.0662C307.742 23.6732 307.048 23.4762 306.138 23.4762H303.672V28.0261H306.138C307.048 28.0261 307.742 27.8291 308.22 27.4361ZM309.337 21.5854C310.19 21.9718 310.847 22.5214 311.306 23.2333C311.775 23.9442 312 24.7865 312 25.761C312 26.7214 311.775 27.5609 311.306 28.2784C310.847 28.9968 310.19 29.5455 309.337 29.9263C308.474 30.3071 307.47 30.4975 306.307 30.4975H303.672V34.1104H300.642V21.0048H306.307C307.47 21.0048 308.474 21.1989 309.337 21.5854Z" fill="#323439"/>
<path d="M143.127 35.6982H139.089V0.606869H143.127V35.6982Z" fill="#323439"/>
<path d="M27.024 36C24.6576 36 23.7078 34.2773 22.8438 32.4191C20.1892 26.6742 17.4958 20.9471 14.8179 15.2138C14.6078 14.7716 14.382 14.3396 13.9616 13.5035C12.0155 21.06 10.1706 28.2536 8.31787 35.4582C5.86575 35.4582 3.50707 35.4582 0.992676 35.4582C1.76334 32.504 2.5106 29.6486 3.26569 26.7948C5.31302 19.0329 7.36039 11.2694 9.42329 3.50978C10.0383 1.18921 10.9412 0.282299 12.7005 0.125832C12.8484 0.112598 13.0041 0.105591 13.152 0.105591C14.8491 0.105591 16.1569 1.00705 17.0288 2.87688C20.1893 9.62684 23.3264 16.3885 26.4714 23.1439C26.6738 23.5806 26.8918 24.0111 27.2265 24.7109C27.569 24.0578 27.8025 23.6506 27.9971 23.2287C31.1421 16.4694 34.287 9.71013 37.432 2.94772C38.0781 1.54495 38.9188 0.377274 40.6003 0.148411C40.8416 0.115715 41.0673 0.0993767 41.2931 0.0993767C43.0212 0.0993767 44.1578 1.11525 44.7338 3.26923C45.9015 7.60365 47.0069 11.9536 48.1434 16.2951C49.171 20.22 50.2064 24.1442 51.2417 28.0684C50.51 28.0831 49.8249 28.0964 49.5681 28.0964C49.5681 30.6847 51.7944 33.0224 51.7944 35.3944C51.9267 35.4504 52.0046 35.5049 52.0669 35.522C51.1327 35.5181 50.2142 35.5111 49.2956 35.5111C48.3848 35.5111 47.4818 35.5181 46.571 35.543C46.5554 35.5438 46.5398 35.5438 46.5243 35.5438C45.6135 35.5438 45.6368 34.8744 45.4889 34.3154C43.8464 27.9718 42.2116 21.6243 40.5691 15.2784C40.4523 14.8176 40.32 14.359 40.0865 13.5245C39.7128 14.2804 39.4949 14.6985 39.2925 15.125C36.5835 20.8973 33.8667 26.6695 31.1654 32.4448C30.3169 34.2423 29.3983 35.9821 27.063 35.9992C27.0474 36 27.0318 36 27.024 36Z" fill="url(#paint0_linear_209_137)"/>
<path d="M67.9932 35.5801C65.3539 35.5801 62.7146 35.5669 60.0671 35.5538C57.469 35.5414 54.8626 35.5283 52.2644 35.5283C52.2069 35.5283 52.1576 35.5283 52.1083 35.5283C52.0918 35.5283 52.0754 35.5258 52.0671 35.5225C52.0014 35.5053 51.9192 35.451 51.7958 35.3943C51.7958 33.0222 49.5676 30.6855 49.5676 28.0972C49.8225 28.0972 50.5131 28.0841 51.2367 28.0685C52.1411 28.0504 53.1195 28.0298 53.4073 28.0298C54.0486 28.029 54.69 28.029 55.3313 28.029C56.6139 28.029 57.8883 28.0298 59.1709 28.0298C60.8071 28.0298 62.4515 28.0298 64.0959 28.0298C68.5276 28.0298 72.9674 28.0282 77.3991 28.02C78.1555 28.0191 78.9366 27.9846 79.6684 27.7996C81.4197 27.3531 82.3076 26.1256 82.2912 24.3645C82.2665 22.5819 81.3786 21.3889 79.6273 20.9531C78.9366 20.7821 78.2049 20.7385 77.4978 20.7353C76.0918 20.7303 74.6941 20.7295 73.2881 20.7295C72.6468 20.7295 72.0137 20.7295 71.3724 20.7295C70.7475 20.7303 70.1227 20.7303 69.4978 20.7303C67.2203 20.7303 64.9428 20.727 62.6735 20.7098C61.4649 20.7007 60.2398 20.6152 59.064 20.3636C54.0897 19.3022 51.0476 15.3844 51.212 10.3846C51.3847 5.1702 54.6571 1.49661 59.8123 0.765678C60.7003 0.640701 61.5964 0.538746 62.4926 0.537102C66.8667 0.527237 81.8719 0.524776 95.9315 0.524776C107.689 0.524776 118.772 0.526424 122.431 0.527248C122.661 0.527248 122.883 0.548626 123.187 0.570827C120.696 0.555202 118.213 0.537102 115.738 0.537102C112.893 0.537102 110.057 0.561775 107.22 0.645638C103.052 0.769791 99.2943 2.4216 96.4577 5.56569C95.7259 6.37638 95.0846 7.2068 94.5255 8.05367C92.4782 8.05367 90.4145 8.05367 88.3755 8.05367C76.8729 8.05367 66.102 8.05612 62.583 8.06434C59.8862 8.07092 58.5132 9.83207 59.1134 12.3998C59.4834 13.976 60.6015 14.7834 62.5419 14.7908C63.0846 14.7924 63.6273 14.7932 64.1699 14.7932C65.3704 14.7932 66.579 14.7899 67.7876 14.7858C68.9798 14.7817 70.172 14.7784 71.3724 14.7784C73.4608 14.7784 75.5492 14.7899 77.6376 14.8343C79.5451 14.8738 81.5019 15.1122 83.3354 15.6187C86.4597 16.4804 88.3919 18.6979 88.9675 21.874C89.2634 23.5291 89.3704 25.2886 89.1648 26.9536C88.5646 31.9788 84.988 35.3194 79.4629 35.4576C75.6396 35.5529 71.8164 35.5801 67.9932 35.5801ZM123.377 8.05694C122.817 8.05694 122.341 8.05694 121.855 8.05694C119.668 8.05694 114.661 8.05613 108.412 8.05531C108.536 8.04955 108.651 8.04626 108.774 8.04543C111.282 8.01748 113.79 8.01009 116.297 8.01009C117.934 8.01009 119.57 8.01336 121.214 8.01665C121.938 8.0183 122.653 8.01994 123.377 8.02077V8.05694Z" fill="url(#paint1_linear_209_137)"/>
<path d="M116.983 35.5684C114.255 35.5684 111.528 35.5485 108.801 35.4841C101.453 35.308 96.0148 31.8112 93.3204 24.9414C90.9897 18.9882 91.1551 13.2045 94.5271 8.05298C95.0809 7.20583 95.7255 6.37603 96.4611 5.56524C99.2959 2.42129 103.056 0.769142 107.222 0.645168C110.057 0.560867 112.892 0.536068 115.735 0.536068C118.214 0.536068 120.702 0.555088 123.19 0.569965C124.859 0.580711 126.52 0.588974 128.198 0.588974C128.198 3.0205 128.198 5.45201 128.198 8.02321C127.818 8.02321 127.454 8.02239 127.099 8.02239C126.917 8.02239 126.744 8.02239 126.57 8.02321C126.454 8.02321 126.339 8.02321 126.223 8.02321C125.272 8.02321 124.322 8.02156 123.38 8.01991C122.652 8.01908 121.933 8.01742 121.214 8.01577C119.57 8.01246 117.933 8.00917 116.297 8.00917C113.792 8.00917 111.28 8.01743 108.776 8.0447C108.652 8.04553 108.536 8.04885 108.42 8.05463C103.933 8.25629 100.478 11.3168 99.5604 15.7972C98.5769 20.5371 100.668 25.1877 104.726 27.0217C105.85 27.5283 107.131 27.9035 108.346 27.9316C110.668 27.987 112.999 28.0002 115.322 28.0002C117.669 28.0002 120.016 27.9862 122.363 27.9862C122.537 27.9862 122.702 27.9258 122.933 27.882C122.933 25.529 122.933 23.2091 122.933 20.7255C118.082 20.7255 113.264 20.7255 108.362 20.7255C108.362 18.6981 108.362 16.8336 108.362 14.8657C115.66 14.8657 122.958 14.8657 130.364 14.8657C130.364 21.6958 130.364 28.5333 130.364 35.446C130.033 35.4741 129.727 35.5213 129.421 35.5213C125.281 35.5229 121.132 35.5684 116.983 35.5684Z" fill="url(#paint2_linear_209_137)"/>
<defs>
<linearGradient id="paint0_linear_209_137" x1="10.9927" y1="0.0996073" x2="51.9927" y2="35.5996" gradientUnits="userSpaceOnUse">
<stop stop-color="#6EC686"/>
<stop offset="1" stop-color="#50998A"/>
</linearGradient>
<linearGradient id="paint1_linear_209_137" x1="52.4926" y1="15.0996" x2="104.493" y2="2.09961" gradientUnits="userSpaceOnUse">
<stop stop-color="#50998A"/>
<stop offset="1" stop-color="#4C9487"/>
</linearGradient>
<linearGradient id="paint2_linear_209_137" x1="129.993" y1="35.0996" x2="111.059" y2="0.536067" gradientUnits="userSpaceOnUse">
<stop offset="0.00333529" stop-color="#245971"/>
<stop offset="1" stop-color="#4C9487"/>
</linearGradient>
</defs>
</svg>
